<svg width="40" height="40" viewBox="0 0 40 40" fill="none" xmlns="http://www.w3.org/2000/svg">
<path d="M40 19.7101L23.0145 28.9855V40H40V19.7101Z" fill="#E89E1B"/>
<path d="M5.7971 23.3623C4.63768 22.9913 1.44928 20.5797 0.173913 19.4203V22.1449L0 40H14.8406C14.3575 39.9614 12.6377 39.4203 9.62319 37.5652C6.6087 35.7101 7.47826 34.5121 8.28986 34.1449L19.0145 27.8841V14.8986C16.2899 17.1208 10.6551 21.7275 9.91304 22.3768C8.98551 23.1884 7.24638 23.8261 5.7971 23.3623Z" fill="#99999B"/>
<path d="M39.0725 3.13044V14.4928C35.4783 12.6957 29.3565 8.89276 29.4493 8.75363C29.542 8.6145 35.6522 4.94687 39.0725 3.13044Z" fill="#99999B"/>
<path d="M0.0579834 0L38.7246 0.347826L24.8116 8.28986C25.6232 10.4348 33.6232 15.1498 38.029 17.5072L23.4203 25.2174L23.1304 24.3478C23.2696 17.3449 22.6087 14.0097 22.2609 13.2174C19.4783 11.4087 16.8889 12.4638 15.942 13.2174L6.84059 20.8116L0.0579834 15.6522V0Z" fill="#99999B"/>
<path d="M11.884 34.9565L18.7826 31.1304C19.3391 33.7739 19.0145 37.4493 18.7826 38.9565L11.884 34.9565Z" fill="#99999B"/>
</svg>
